<svg width="46" height="55" viewBox="0 0 46 55" fill="none" xmlns="http://www.w3.org/2000/svg">
<path d="M38.9253 6.80311C34.2442 2.12833 27.7935 -0.333078 21.1868 0.0363273C20.604 0.0704809 20.1558 0.569976 20.1899 1.15487C20.222 1.73974 20.7215 2.18587 21.3064 2.15598C27.3086 1.81658 33.1727 4.05366 37.4247 8.30581C41.6767 12.5558 43.9138 18.4196 43.5745 24.4241C43.5425 25.009 43.9907 25.5106 44.5756 25.5427C45.1605 25.5747 45.66 25.1285 45.6941 24.5437C46.0613 17.937 43.6003 11.4862 38.9253 6.80311Z" fill="white"/>
<path d="M39.2412 25.2416C39.5208 25.2565 39.7962 25.1604 40.0075 24.9726C40.2167 24.7848 40.3426 24.5222 40.3597 24.2426C40.6457 19.1537 38.7502 14.1867 35.147 10.5833C31.5437 6.98 26.5763 5.0827 21.4877 5.37063C21.2081 5.38558 20.9434 5.51365 20.7556 5.72284C20.5677 5.93203 20.4717 6.2074 20.4866 6.48914C20.5037 6.7709 20.6296 7.03346 20.841 7.22128C21.0502 7.40913 21.3255 7.50518 21.6073 7.49024C26.092 7.23623 30.4703 8.90764 33.6463 12.0839C36.8225 15.258 38.4939 19.6381 38.2399 24.1229C38.2079 24.7077 38.6563 25.2095 39.2412 25.2416Z" fill="white"/>
<path d="M33.2001 24.6335C33.4969 24.928 33.9387 25.022 34.3293 24.8747C34.72 24.7253 34.9868 24.3602 35.0103 23.9419C35.2109 20.3771 33.8832 16.8953 31.3601 14.3701C28.8349 11.8449 25.3535 10.5172 21.7884 10.72C21.5066 10.7349 21.2419 10.8608 21.054 11.07C20.8662 11.2814 20.7701 11.5567 20.7851 11.8385C20.8022 12.1202 20.9281 12.3828 21.1394 12.5706C21.3486 12.7585 21.6261 12.8545 21.9057 12.8374C24.8686 12.6709 27.761 13.7745 29.8594 15.8707C31.9556 17.969 33.0592 20.8614 32.8906 23.8222C32.8735 24.1253 32.9867 24.42 33.2001 24.6335Z" fill="white"/>
<path d="M22.0917 16.0885C21.8121 16.1056 21.5474 16.2315 21.3596 16.4407C21.1717 16.6499 21.0757 16.9274 21.0906 17.207L21.4343 23.2972C21.4642 23.8352 21.8954 24.2663 22.4333 24.2962L28.5214 24.6378C29.1062 24.6719 29.6079 24.2236 29.642 23.6388C29.7552 21.6024 28.9974 19.6151 27.5565 18.1742C26.1157 16.7334 24.1282 15.9754 22.0917 16.0885Z" fill="white"/>
<path d="M29.0952 34.4976C28.6191 34.0216 27.8464 34.0216 27.3704 34.4976L25.5624 36.3035L23.4278 34.1689C25.4109 31.7952 26.491 28.8004 26.4824 25.7075V25.5859L24.0404 25.4471C24.0426 25.5325 24.0426 25.62 24.0426 25.7054V25.7075C24.0426 28.9991 22.5419 32.1115 19.9655 34.1607C17.3912 36.2078 14.0206 36.9719 10.8145 36.2313C7.60622 35.4906 4.91224 33.3303 3.49473 30.359C2.07733 27.3898 2.09017 23.936 3.53316 20.9753C4.974 18.0167 7.68497 15.8779 10.8978 15.1626C14.1103 14.4497 17.4744 15.2395 20.034 17.3079L20.0318 17.2673C19.9827 16.3815 20.4908 15.5575 21.3041 15.2011C18.6529 13.1668 15.3313 12.2105 12.0033 12.5222C8.67766 12.836 5.59122 14.3942 3.36441 16.8874C1.13803 19.3785 -0.0616065 22.6209 0.00243826 25.9614C0.0664776 29.302 1.39208 32.4954 3.71239 34.9009C6.03057 37.3065 9.17483 38.7453 12.5114 38.9288C15.8478 39.1146 19.1307 38.0302 21.7029 35.8956L23.8374 38.0301L22.0294 39.836C21.5555 40.3142 21.5555 41.0848 22.0294 41.5629L33.2509 52.7844H33.2531C35.1699 54.697 38.2736 54.697 40.1903 52.7844L40.3163 52.6564C42.2289 50.7395 42.2289 47.6358 40.3163 45.7213L29.0952 34.4976Z" fill="white"/>
</svg>
