<svg width="20" height="20" viewBox="0 0 20 20" fill="none" xmlns="http://www.w3.org/2000/svg">
<rect width="20" height="20" rx="10" fill="url(#paint0_linear_156_151)"/>
<path d="M9.28743 13.7875L4.76243 9.2625C4.6541 9.15417 4.5771 9.0355 4.53143 8.9065C4.48577 8.7775 4.46693 8.642 4.47493 8.5C4.48293 8.358 4.51427 8.22467 4.56893 8.1C4.6236 7.97533 4.70893 7.867 4.82493 7.775C5.49993 7.19167 6.31043 6.75 7.25643 6.45C8.20243 6.15 9.11693 6 9.99993 6C10.8916 6 11.8063 6.15217 12.7439 6.4565C13.6816 6.76083 14.4919 7.2045 15.1749 7.7875C15.2916 7.87917 15.3771 7.98967 15.4314 8.119C15.4858 8.24833 15.5169 8.3795 15.5249 8.5125C15.5329 8.6455 15.5121 8.77683 15.4624 8.9065C15.4128 9.03617 15.3378 9.15483 15.2374 9.2625L15.0624 9.4375C14.8124 9.0125 14.4688 8.66667 14.0314 8.4C13.5941 8.13333 13.0836 8 12.4999 8C11.6666 8 10.9583 8.29167 10.3749 8.875C9.7916 9.45833 9.49993 10.1667 9.49993 11C9.49993 11.575 9.63543 12.0855 9.90643 12.5315C10.1774 12.9775 10.5169 13.3212 10.9249 13.5625L10.7124 13.7875C10.6124 13.8875 10.5019 13.9605 10.3809 14.0065C10.2599 14.0525 10.1329 14.0753 9.99993 14.075C9.86693 14.0747 9.73977 14.0518 9.61843 14.0065C9.4971 13.9612 9.38677 13.8882 9.28743 13.7875ZM14.4499 13.65L13.5124 12.725C13.3624 12.8167 13.2041 12.8855 13.0374 12.9315C12.8708 12.9775 12.6916 13.0003 12.4999 13C11.9333 13 11.4583 12.8083 11.0749 12.425C10.6916 12.0417 10.4999 11.5667 10.4999 11C10.4999 10.4333 10.6916 9.95833 11.0749 9.575C11.4583 9.19167 11.9333 9 12.4999 9C13.0666 9 13.5416 9.19167 13.9249 9.575C14.3083 9.95833 14.4999 10.4333 14.4999 11C14.4999 11.1917 14.4771 11.3708 14.4314 11.5375C14.3858 11.7042 14.3169 11.8625 14.2249 12.0125L15.1499 12.95C15.2416 13.0417 15.2896 13.1563 15.2939 13.294C15.2983 13.4317 15.2503 13.5503 15.1499 13.65C15.0583 13.7417 14.9416 13.7875 14.7999 13.7875C14.6583 13.7875 14.5416 13.7417 14.4499 13.65ZM12.4999 12C12.7833 12 13.0208 11.9042 13.2124 11.7125C13.4041 11.5208 13.4999 11.2833 13.4999 11C13.4999 10.7167 13.4041 10.4792 13.2124 10.2875C13.0208 10.0958 12.7833 10 12.4999 10C12.2166 10 11.9791 10.0958 11.7874 10.2875C11.5958 10.4792 11.4999 10.7167 11.4999 11C11.4999 11.2833 11.5958 11.5208 11.7874 11.7125C11.9791 11.9042 12.2166 12 12.4999 12Z" fill="white"/>
<defs>
<linearGradient id="paint0_linear_156_151" x1="10" y1="0" x2="10" y2="20" gradientUnits="userSpaceOnUse">
<stop stop-color="#007C82"/>
<stop offset="1" stop-color="#007C82" stop-opacity="0.8"/>
</linearGradient>
</defs>
</svg>
